<?xml version="1.0" encoding="utf-8"?>
<!-- Generator: Adobe Illustrator 24.0.0, SVG Export Plug-In . SVG Version: 6.00 Build 0)  -->
<svg version="1.1" xmlns="http://www.w3.org/2000/svg" xmlns:xlink="http://www.w3.org/1999/xlink" x="0px" y="0px"
	 viewBox="0 0 100 100" style="enable-background:new 0 0 100 100;" xml:space="preserve">
<style type="text/css">
	.st0{display:none;}
	.st1{display:inline;fill:#FFFFFF;}
	.st2{display:inline;}
	.st3{fill:#C97230;}
	.st4{fill:#FFA058;}
	.st5{display:inline;fill:#C97230;}
	.st6{display:inline;fill:#FFA058;}
</style>
<g id="圖層_2" class="st0">
	<rect class="st1" width="100" height="100"/>
</g>
<g id="圖層_3" class="st0">
	<g class="st2">
		<path class="st3" d="M42.23,28.81c1.54-5.93,2.4-10.78,4.06-15.34c2.69-7.36,8.14-9.99,15.01-7.87c6.4,1.97,9.47,7.44,7.77,14.75
			c-0.85,3.67-2.16,7.12-3.48,10.96c-0.43,1.25,0.33,2.6,1.63,2.87c0.59,0.12,1.18,0.24,1.77,0.36c4.08,0.82,7.15,2.83,8.79,6.88
			c0.48,1.18,1.6,2.34,2.73,2.97c5.12,2.84,7.76,6.54,5.69,11.99c-3.97,10.41-9.52,20.22-13.6,30.59
			c-2.93,7.49-8.57,8.32-15.08,8.19c-7.16-0.15-14.34-0.28-21.48-0.85c-1.76-0.14-3.81-1.61-5-3.07
			c-5.92-7.28-8.92-15.89-7.51-25.06c1.89-12.3-1.85-23.09-6.52-33.94c-1.27-2.96-2.29-6.13-2.82-9.3
			c-1.13-6.81,2.16-11.83,8.64-13.93c5.91-1.91,10.96,0.17,14.1,6.4C38.93,19.38,40.24,23.71,42.23,28.81z"/>
		<path class="st4" d="M54.52,44.24c0.79-0.13,1.45-0.67,1.72-1.43c2.65-7.39,5.77-15.29,8.15-23.4c1.63-5.57-0.78-8.87-5.89-9.76
			c-4.73-0.82-7.06,2.2-8.07,6.06c-1.81,6.92-3.09,13.99-4.77,20.95c-0.15,0.63-0.48,1.23-0.86,1.81c-0.76,1.14-2.38,1.27-3.36,0.32
			c-0.56-0.55-1.06-1.12-1.32-1.79c-2.51-6.36-4.54-12.9-7.14-19.22c-1.6-3.91-4.78-5.79-9.12-4.29c-4.16,1.44-5.87,4.63-5.19,8.83
			c0.41,2.54,1.27,5.07,2.32,7.43c5.28,11.89,9.14,23.9,7.16,37.31C27.1,74.14,29,81.1,33.68,86.8c1.27,1.55,3.54,3.09,5.42,3.2
			c7.48,0.41,14.99,0.32,22.49,0.25c1.36-0.01,3.36-0.4,3.96-1.32c3.28-5.07,6.3-10.31,9.15-15.13c0.59-1,0.29-2.27-0.66-2.93
			c-6.36-4.45-12.27-0.72-18.21-0.1c-1.22,0.13-2.09,1.23-1.95,2.45c0.09,0.73,0.12,1.38-0.01,1.99c-0.04,0.2-0.1,0.39-0.17,0.58
			c-0.59,1.64-2.92,1.9-3.84,0.42c-0.08-0.13-0.16-0.27-0.22-0.41c-0.58-1.28-0.98-2.64-1.38-4.04c-0.3-1.05-1.33-1.67-2.42-1.54
			c-0.19,0.02-0.36,0.03-0.53,0.01c-0.3-0.04-0.59-0.08-0.88-0.13c-1.81-0.31-2.58-2.63-1.15-3.78c0.16-0.13,0.33-0.23,0.52-0.28
			c2.25-0.65,4.74-0.5,7.14-0.59c3.38-0.13,7.13,0.69,10.04-0.53c2.31-0.97,4.48-4.21,5.01-6.8c0.33-1.63-2.03-4.69-3.94-5.74
			c-6.43-3.55-13.31-3.82-20.36-1.45c-0.25,0.08-0.51,0.12-0.78,0.12c-1.94,0-2.92-2.42-1.51-3.75c0.29-0.27,0.6-0.47,0.93-0.55
			C44.67,45.68,49.14,45.1,54.52,44.24z"/>
		<path class="st4" d="M60.9,44.19c-0.42,1.07,0.04,2.29,1.07,2.79c1.42,0.69,2.75,1.34,3.97,2.16c0.88,0.59,1.69,1.28,2.5,2
			c1.11,0.99,2.89,0.62,3.48-0.75c2.69-6.29,1.89-9.23-2.52-10.97C65.24,37.79,63,38.88,60.9,44.19z"/>
		<path class="st4" d="M71.44,62.04c-0.65,1.32,0.15,2.89,1.59,3.14c1.76,0.31,3.37,0.56,3.69,0.03c2.25-3.72,3.98-7.88,5.08-12.09
			c0.18-0.68-0.42-1.55-1.22-2.53c-1.01-1.23-2.96-1-3.67,0.42C75.03,54.81,73.31,58.27,71.44,62.04z"/>
	</g>
</g>
<g id="圖層_1">
	<path class="st3" d="M51.05,94.8c-21.55-0.52-21.63-0.45-36.46-17.55C7.81,69.44,1.42,61.13,2.65,50c0.45-4.1,1.94-8.94,4.69-11.72
		c3.64-3.68,4.54-7.16,4.37-11.99c-0.45-13,9.8-20.56,22.17-16.24c3.18,1.11,4.8,0.79,7.24-1.38c5.04-4.45,12.38-4.41,18.14-1.07
		c2.11,1.23,4.48,1.9,6.92,1.83c5.72-0.15,10.76,0.72,14.62,5.41c1.06,1.27,3.21,2.58,4.84,2.79c7.47,1.02,11.59,5.72,11.83,12.59
		c0.21,6.08-1.36,12.28-2.62,18.34c-0.96,4.62-2.13,9.36-4.16,13.59c-4.69,9.77-9.85,19.31-15.14,28.78
		c-0.72,1.3-3.25,2.02-5.03,2.22C64.07,93.89,57.54,94.28,51.05,94.8z"/>
	<path class="st4" d="M46.79,61.65c-5.73,0-10.75,0.36-15.66-0.2c-0.65-0.07-1.26-0.48-1.86-1.03c-1.51-1.39-0.99-3.9,0.96-4.54
		c0.56-0.19,1.12-0.32,1.7-0.37c3.84-0.37,8.25,0.82,11.43-0.7c2.98-1.42,5.81-5.25,6.58-8.51c0.48-2.04-2.42-5.87-4.77-7.4
		c-8.45-5.56-17.56-6.04-26.78-1.54C9.68,41.59,6.29,52.02,10.93,60.5c9.05,16.53,19.51,31.69,42.5,27.67
		c1.8-0.32,3.65-0.33,5.48-0.15c7.3,0.71,12.82-1.22,16.13-8.37c3.3-7.12,7.06-14.05,10.95-21.5c0.94-1.8-0.11-4.01-2.1-4.41
		c-3.74-0.76-6.58-1.42-9.44-1.46c-4.87-0.07-9.74,1.1-14.61,1.1c-5.6,0-7.85,2.29-6.72,7.7c0.44,2.13,1.07,4.34,0.84,6.43
		c0,0.01,0,0.04,0,0.05c-0.36,2.85-4.46,3.42-5.67,0.82c-0.01-0.03-0.03-0.07-0.04-0.09C47.41,66.34,47.28,64.11,46.79,61.65z"/>
	<path class="st4" d="M53.82,38.18c1.96,1.66,4.97,0.31,5.03-2.26c0.12-5.91,0.27-11.79-0.41-17.56c-0.31-2.59-4.18-6.03-7.04-6.76
		c-4.4-1.15-8.57,1.84-8.97,6.39c-0.41,4.74-3.78,10.52,3.23,14.22C48.48,33.7,51,35.8,53.82,38.18z"/>
	<path class="st4" d="M63.91,44.66c-0.12,1.74,1.22,3.23,2.95,3.31c3.65,0.16,6.54-1.71,7.67-6.51c1.26-5.25,2.26-10.67,2.5-16.05
		c0.32-7.3-2.21-9.92-8.55-9.24c-1.48,0.16-2.66,1.34-2.77,2.82C65.11,27.46,64.52,35.92,63.91,44.66z"/>
	<path class="st4" d="M32.99,27.8c1.71-0.25,2.87-1.88,2.55-3.57c-0.59-3.1-1.07-6.32-2.86-7.46c-2.69-1.7-8.18-1.16-11.31,0.52
		c-3.92,2.11-4.08,5.95-3.45,9.78c0.27,1.63,1.82,2.73,3.46,2.49C25.04,29,28.74,28.45,32.99,27.8z"/>
	<path class="st4" d="M80.67,43.5c-0.29,1.63,0.76,3.22,2.38,3.54c5.17,1,7.14-0.63,8.33-5.96c1.7-7.67,0.6-12.9-3.22-15.38
		c-1.83-1.19-4.28-0.12-4.66,2.03C82.56,32.86,81.64,38.06,80.67,43.5z"/>
</g>
<g id="圖層_4" class="st0">
	<path class="st5" d="M27.46,53.63c-2.58-6.12-5.23-12.22-7.7-18.37c-1.1-2.72-2.17-5.52-2.73-8.39c-1.3-6.59,1.19-11.48,6.68-13.85
		c5.67-2.45,9.8-1.19,14.2,4.35c0.37,0.46,0.73,1.89,1.04,2.31c1.29-3.23,1.84-7.91,3.95-10.15c1.99-2.1,5.56-3.46,8.55-3.71
		c6.44-0.52,9.18,2.76,11.97,12.68c5.85-6.14,9.73-7.33,15.39-4.2c8.53,4.72,4.64,11.94,3.25,18.94c1.25-0.32,2.23-0.67,3.22-0.83
		c4.85-0.8,8.64,0.97,11.13,5.11c2.4,4.01,2.53,8.58-0.93,11.66c-8.97,7.99-14.5,17.73-18.05,29.11c-1.58,5.07-5.11,9.57-8.02,14.16
		c-0.6,0.95-2.32,1.64-3.55,1.65c-9.48,0.13-18.96,0.14-28.44,0C36.26,94.1,35.01,93.1,34,92.3c-2.47-1.96-4.74-4.17-7.22-6.11
		C19.62,80.56,12.06,75.36,5.26,69.3c-4.34-3.87-4.29-10.04-1.22-14.07c3.75-4.93,11.67-6.76,17.35-3.92
		c1.81,0.91,3.5,2.04,5.24,3.06C27.05,54,27.04,54.01,27.46,53.63z"/>
	<path class="st6" d="M51.56,90.38c0,0.01,0,0.01,0,0.02c2.81,0,5.64,0.25,8.41-0.08c2.18-0.26,5.45-0.57,6.22-1.98
		c4.09-7.44,7.53-15.24,11.24-22.88c1.26-2.6,2.29-5.43,4.09-7.62c3.16-3.84,6.95-7.16,10.25-10.89c2.57-2.9,2.41-6.02-0.51-8.68
		c-3.12-2.83-5.97-1.99-8.41,1.03c-2.15,2.67-4.03,5.57-6.35,8.09c-0.44,0.48-0.97,0.87-1.54,1.22c-1.4,0.87-3.23-0.17-3.17-1.82
		c0.02-0.62,0.1-1.23,0.3-1.8c2.34-6.76,5.31-13.3,7.36-20.15c1.41-4.74-2.52-8.76-7.15-7.32c-2.22,0.69-4.45,3.36-5.4,5.66
		c-2.06,5.01-3.18,10.41-4.99,15.54c-0.17,0.5-0.46,0.96-0.79,1.4c-1.02,1.33-3.13,0.92-3.63-0.68c-0.19-0.6-0.32-1.2-0.3-1.81
		c0.2-6.69,1.07-13.37,1.09-20.05c0.01-5.65-3.93-8.58-8.9-7.32c-4.15,1.05-5.2,4.41-5.02,7.96c0.34,6.53,1.28,13.02,1.7,19.54
		c0.03,0.52-0.04,1.03-0.17,1.56c-0.41,1.62-2.51,2.1-3.58,0.83c-0.33-0.4-0.62-0.81-0.8-1.27c-2.46-6.05-4.44-12.28-6.96-18.31
		c-1.4-3.35-4.23-5.07-7.99-3.9c-3.91,1.2-6.02,4-5.46,8.12c0.35,2.58,1.22,5.14,2.21,7.57c3.22,7.93,6.65,15.78,9.86,23.72
		c0.46,1.14,0.69,3.17,0.07,3.75c-0.76,0.7-2.71,0.74-3.84,0.28c-3.17-1.26-6.21-2.87-9.25-4.43c-4.48-2.29-10.07-1.31-12.65,2.3
		c-2.18,3.06-1.16,6.69,3.05,10.53c6.44,5.88,12.66,12.04,21.13,15.13c1.41,0.52,3.11,1.43,3.75,2.65c1.94,3.71,5.13,4.09,8.67,4.05
		C46.57,90.36,49.07,90.38,51.56,90.38z"/>
</g>
</svg>
