<?xml version="1.0" encoding="utf-8"?>
<!-- Generator: Adobe Illustrator 24.0.0, SVG Export Plug-In . SVG Version: 6.00 Build 0)  -->
<svg version="1.1" id="圖層_1" xmlns="http://www.w3.org/2000/svg" xmlns:xlink="http://www.w3.org/1999/xlink" x="0px" y="0px"
	 viewBox="0 0 100 100" style="enable-background:new 0 0 100 100;" xml:space="preserve">
<style type="text/css">
	.st0{fill:#C97230;}
	.st1{fill:#FFA058;}
</style>
<g>
	<path class="st0" d="M42.23,28.81c1.54-5.93,2.4-10.78,4.06-15.34c2.69-7.36,8.14-9.99,15.01-7.87c6.4,1.97,9.47,7.44,7.77,14.75
		c-0.85,3.67-2.16,7.12-3.48,10.96c-0.43,1.25,0.33,2.6,1.63,2.87c0.59,0.12,1.18,0.24,1.77,0.36c4.08,0.82,7.15,2.83,8.79,6.88
		c0.48,1.18,1.6,2.34,2.73,2.97c5.12,2.84,7.76,6.54,5.69,11.99c-3.97,10.41-9.52,20.22-13.6,30.59c-2.93,7.49-8.57,8.32-15.08,8.19
		c-7.16-0.15-14.34-0.28-21.48-0.85c-1.76-0.14-3.81-1.61-5-3.07c-5.92-7.28-8.92-15.89-7.51-25.06c1.89-12.3-1.85-23.09-6.52-33.94
		c-1.27-2.96-2.29-6.13-2.82-9.3c-1.13-6.81,2.16-11.83,8.64-13.93c5.91-1.91,10.96,0.17,14.1,6.4
		C38.93,19.38,40.24,23.71,42.23,28.81z"/>
	<path class="st1" d="M54.52,44.24c0.79-0.13,1.45-0.67,1.72-1.43c2.65-7.39,5.77-15.29,8.15-23.4c1.63-5.57-0.78-8.87-5.89-9.76
		c-4.73-0.82-7.06,2.2-8.07,6.06c-1.81,6.92-3.09,13.99-4.77,20.95c-0.15,0.63-0.48,1.23-0.86,1.81c-0.76,1.14-2.38,1.27-3.36,0.32
		c-0.56-0.55-1.06-1.12-1.32-1.79c-2.51-6.36-4.54-12.9-7.14-19.22c-1.6-3.91-4.78-5.79-9.12-4.29c-4.16,1.44-5.87,4.63-5.19,8.83
		c0.41,2.54,1.27,5.07,2.32,7.43c5.28,11.89,9.14,23.9,7.16,37.31C27.1,74.14,29,81.1,33.68,86.8c1.27,1.55,3.54,3.09,5.42,3.2
		c7.48,0.41,14.99,0.32,22.49,0.25c1.36-0.01,3.36-0.4,3.96-1.32c3.28-5.07,6.3-10.31,9.15-15.13c0.59-1,0.29-2.27-0.66-2.93
		c-6.36-4.45-12.27-0.72-18.21-0.1c-1.22,0.13-2.09,1.23-1.95,2.45c0.09,0.73,0.12,1.38-0.01,1.99c-0.04,0.2-0.1,0.39-0.17,0.58
		c-0.59,1.64-2.92,1.9-3.84,0.42c-0.08-0.13-0.16-0.27-0.22-0.41c-0.58-1.28-0.98-2.64-1.38-4.04c-0.3-1.05-1.33-1.67-2.42-1.54
		c-0.19,0.02-0.36,0.03-0.53,0.01c-0.3-0.04-0.59-0.08-0.88-0.13c-1.81-0.31-2.58-2.63-1.15-3.78c0.16-0.13,0.33-0.23,0.52-0.28
		c2.25-0.65,4.74-0.5,7.14-0.59c3.38-0.13,7.13,0.69,10.04-0.53c2.31-0.97,4.48-4.21,5.01-6.8c0.33-1.63-2.03-4.69-3.94-5.74
		c-6.43-3.55-13.31-3.82-20.36-1.45c-0.25,0.08-0.51,0.12-0.78,0.12c-1.94,0-2.92-2.42-1.51-3.75c0.29-0.27,0.6-0.47,0.93-0.55
		C44.67,45.68,49.14,45.1,54.52,44.24z"/>
	<path class="st1" d="M60.9,44.19c-0.42,1.07,0.04,2.29,1.07,2.79c1.42,0.69,2.75,1.34,3.97,2.16c0.88,0.59,1.69,1.28,2.5,2
		c1.11,0.99,2.89,0.62,3.48-0.75c2.69-6.29,1.89-9.23-2.52-10.97C65.24,37.79,63,38.88,60.9,44.19z"/>
	<path class="st1" d="M71.44,62.04c-0.65,1.32,0.15,2.89,1.59,3.14c1.76,0.31,3.37,0.56,3.69,0.03c2.25-3.72,3.98-7.88,5.08-12.09
		c0.18-0.68-0.42-1.55-1.22-2.53c-1.01-1.23-2.96-1-3.67,0.42C75.03,54.81,73.31,58.27,71.44,62.04z"/>
</g>
</svg>
